<?xml version="1.0" standalone="no"?>
<!DOCTYPE svg PUBLIC "-//W3C//DTD SVG 20010904//EN"
 "http://www.w3.org/TR/2001/REC-SVG-20010904/DTD/svg10.dtd">
<svg version="1.0" xmlns="http://www.w3.org/2000/svg"
 width="100.000000pt" height="100.000000pt" viewBox="0 0 100.000000 100.000000"
 preserveAspectRatio="xMidYMid meet">

<g transform="translate(0.000000,100.000000) scale(0.100000,-0.100000)"
fill="#000000" stroke="none">
<path d="M386 944 c-223 -54 -374 -284 -339 -515 16 -102 61 -186 143 -263
138 -129 333 -161 507 -81 74 34 173 131 212 208 91 182 54 394 -95 537 -119
114 -266 153 -428 114z m219 -39 c209 -54 344 -261 308 -471 -12 -69 -47 -151
-85 -196 l-23 -28 -90 36 c-49 20 -96 41 -102 46 -18 14 -16 83 2 98 8 6 17
22 21 33 4 12 15 32 25 45 13 17 18 43 20 95 4 190 1 199 -91 249 -48 26 -62
29 -114 24 -65 -5 -98 -24 -133 -76 -21 -29 -23 -44 -22 -152 1 -96 5 -123 19
-141 9 -12 20 -32 24 -44 4 -11 13 -27 21 -33 19 -15 20 -84 2 -99 -8 -6 -44
-22 -80 -36 -37 -14 -76 -30 -88 -37 -18 -12 -23 -10 -45 17 -71 87 -106 219
-87 331 43 247 278 401 518 339z"/>
</g>
</svg>
